<?xml version="1.0"?>
<svg xmlns="http://www.w3.org/2000/svg" height="512px" viewBox="-36 0 512 512" width="512px" class=""><g><path d="m420 396h-20v-140c0-81.179688-54.023438-149.972656-128.007812-172.332031 3.839843-7.746094 6.007812-16.457031 6.007812-25.667969 0-31.980469-26.019531-58-58-58s-58 26.019531-58 58c0 9.210938 2.167969 17.921875 6.007812 25.667969-73.984374 22.359375-128.007812 91.152343-128.007812 172.332031v140h-20c-11.046875 0-20 8.953125-20 20s8.953125 20 20 20h102.101562c9.226563 43.367188 47.820313 76 93.898438 76h8c46.078125 0 84.671875-32.632812 93.898438-76h102.101562c11.046875 0 20-8.953125 20-20s-8.953125-20-20-20zm-218-338c0-9.925781 8.074219-18 18-18s18 8.074219 18 18-8.074219 18-18 18-18-8.074219-18-18zm22 414h-8c-23.835938 0-44.242188-14.96875-52.308594-36h112.617188c-8.066406 21.03125-28.472656 36-52.308594 36zm-144-76v-140c0-77.195312 62.804688-140 140-140s140 62.804688 140 140v140c-27.175781 0-269.429688 0-280 0zm0 0" data-original="#000000" class="active-path" data-old_color="#000000" fill="#3171E0"/></g> </svg>
