<?xml version="1.0" standalone="no"?>
<svg
  width="600"
  height="600"
  viewBox="0 0 600 600"
  xmlns="http://www.w3.org/2000/svg"
>
  <g transform="translate(300,300)">
    <path d="M106.1,-158.5C131.4,-148.8,141.6,-109.1,142.7,-74.6C143.8,-40.1,135.8,-10.9,141.7,27.7C147.6,66.4,167.5,114.4,154.2,138.4C140.8,162.3,94.2,162.2,50,179.3C5.8,196.4,-36,230.6,-67.1,223.7C-98.2,216.7,-118.6,168.6,-145.1,130.1C-171.6,91.7,-204.1,62.8,-213.8,27.7C-223.5,-7.4,-210.4,-48.8,-186,-77.7C-161.5,-106.6,-125.6,-123.1,-92.7,-129.5C-59.8,-135.8,-29.9,-131.9,5.2,-140C40.4,-148.1,80.7,-168.3,106.1,-158.5Z" fill="#e0eafb" />
  </g>
</svg>
  