<?xml version="1.0" standalone="no"?>
<svg
  width="600"
  height="600"
  viewBox="0 0 600 600"
  xmlns="http://www.w3.org/2000/svg"
>
  <g transform="translate(300,300)">
    <path d="M101.2,-181.9C119.8,-145.5,115.9,-98.3,140.1,-59.7C164.3,-21.2,216.8,8.8,231.5,46.2C246.2,83.7,223.3,128.6,186.2,148.8C149.2,169.1,98.1,164.7,52,179.1C5.9,193.5,-35.2,226.8,-67.4,221.1C-99.5,215.5,-122.7,170.9,-156.3,134.3C-190,97.6,-234,68.8,-239.5,34.2C-244.9,-0.5,-211.6,-41,-182.2,-74C-152.7,-107,-127.2,-132.6,-97.5,-164C-67.8,-195.4,-33.9,-232.7,3.7,-238.5C41.3,-244.2,82.5,-218.4,101.2,-181.9Z" fill="#e0eafb" />
  </g>
</svg>
  